{
	"asset":{
		"generator":"Khronos glTF Blender I/O v4.0.44",
		"version":"2.0"
	},
	"extensionsUsed":[
		"KHR_materials_transmission",
		"KHR_materials_ior"
	],
	"scene":0,
	"scenes":[
		{
			"name":"Scene",
			"nodes":[
				0,
				1,
				2
			]
		}
	],
	"nodes":[
		{
			"mesh":0,
			"name":"Cube"
		},
		{
			"mesh":1,
			"name":"Plane"
		},
		{
			"mesh":2,
			"name":"Icosphere"
		}
	],
	"materials":[
		{
			"doubleSided":true,
			"extensions":{
				"KHR_materials_transmission":{
					"transmissionFactor":1
				},
				"KHR_materials_ior":{
					"ior":1.4500000476837158
				}
			},
			"name":"Sphere.001",
			"pbrMetallicRoughness":{
				"roughnessFactor":0.05000000074505806
			}
		},
		{
			"doubleSided":true,
			"name":"Material.002",
			"pbrMetallicRoughness":{
				"baseColorTexture":{
					"index":0
				},
				"metallicFactor":0,
				"roughnessFactor":0.5
			}
		}
	],
	"meshes":[
		{
			"name":"Cube.001",
			"primitives":[
				{
					"attributes":{
						"POSITION":0,
						"NORMAL":1,
						"TEXCOORD_0":2,
						"TANGENT":3
					},
					"indices":4,
					"material":0
				}
			]
		},
		{
			"name":"Plane",
			"primitives":[
				{
					"attributes":{
						"POSITION":5,
						"NORMAL":6,
						"TEXCOORD_0":7,
						"TANGENT":8
					},
					"indices":9,
					"material":1
				}
			]
		},
		{
			"name":"Icosphere.002",
			"primitives":[
				{
					"attributes":{
						"POSITION":10,
						"NORMAL":11,
						"TEXCOORD_0":12,
						"TEXCOORD_1":13,
						"TANGENT":14
					},
					"indices":15,
					"material":0
				}
			]
		}
	],
	"textures":[
		{
			"sampler":0,
			"source":0
		}
	],
	"images":[
		{
			"mimeType":"image/png",
			"name":"Untitled",
			"uri":"Untitled.png"
		}
	],
	"accessors":[
		{
			"bufferView":0,
			"componentType":5126,
			"count":24,
			"max":[
				-0.02918064594268799,
				2.000999927520752,
				1.379486322402954
			],
			"min":[
				-2.7881531715393066,
				0.001000046730041504,
				-1.379486322402954
			],
			"type":"VEC3"
		},
		{
			"bufferView":1,
			"componentType":5126,
			"count":24,
			"type":"VEC3"
		},
		{
			"bufferView":2,
			"componentType":5126,
			"count":24,
			"type":"VEC2"
		},
		{
			"bufferView":3,
			"componentType":5126,
			"count":24,
			"type":"VEC4"
		},
		{
			"bufferView":4,
			"componentType":5123,
			"count":36,
			"type":"SCALAR"
		},
		{
			"bufferView":5,
			"componentType":5126,
			"count":20,
			"max":[
				4.07344388961792,
				7.136051654815674,
				4.582265853881836
			],
			"min":[
				-4.07344388961792,
				0,
				-4.582265853881836
			],
			"type":"VEC3"
		},
		{
			"bufferView":6,
			"componentType":5126,
			"count":20,
			"type":"VEC3"
		},
		{
			"bufferView":7,
			"componentType":5126,
			"count":20,
			"type":"VEC2"
		},
		{
			"bufferView":8,
			"componentType":5126,
			"count":20,
			"type":"VEC4"
		},
		{
			"bufferView":9,
			"componentType":5123,
			"count":30,
			"type":"SCALAR"
		},
		{
			"bufferView":10,
			"componentType":5126,
			"count":280,
			"max":[
				2.2899999618530273,
				3.795650005340576,
				0.9999998807907104
			],
			"min":[
				0.2900000214576721,
				1.7956500053405762,
				-1
			],
			"type":"VEC3"
		},
		{
			"bufferView":11,
			"componentType":5126,
			"count":280,
			"type":"VEC3"
		},
		{
			"bufferView":12,
			"componentType":5126,
			"count":280,
			"type":"VEC2"
		},
		{
			"bufferView":13,
			"componentType":5126,
			"count":280,
			"type":"VEC2"
		},
		{
			"bufferView":14,
			"componentType":5126,
			"count":280,
			"type":"VEC4"
		},
		{
			"bufferView":15,
			"componentType":5123,
			"count":960,
			"type":"SCALAR"
		}
	],
	"bufferViews":[
		{
			"buffer":0,
			"byteLength":288,
			"byteOffset":0,
			"target":34962
		},
		{
			"buffer":0,
			"byteLength":288,
			"byteOffset":288,
			"target":34962
		},
		{
			"buffer":0,
			"byteLength":192,
			"byteOffset":576,
			"target":34962
		},
		{
			"buffer":0,
			"byteLength":384,
			"byteOffset":768,
			"target":34962
		},
		{
			"buffer":0,
			"byteLength":72,
			"byteOffset":1152,
			"target":34963
		},
		{
			"buffer":0,
			"byteLength":240,
			"byteOffset":1224,
			"target":34962
		},
		{
			"buffer":0,
			"byteLength":240,
			"byteOffset":1464,
			"target":34962
		},
		{
			"buffer":0,
			"byteLength":160,
			"byteOffset":1704,
			"target":34962
		},
		{
			"buffer":0,
			"byteLength":320,
			"byteOffset":1864,
			"target":34962
		},
		{
			"buffer":0,
			"byteLength":60,
			"byteOffset":2184,
			"target":34963
		},
		{
			"buffer":0,
			"byteLength":3360,
			"byteOffset":2244,
			"target":34962
		},
		{
			"buffer":0,
			"byteLength":3360,
			"byteOffset":5604,
			"target":34962
		},
		{
			"buffer":0,
			"byteLength":2240,
			"byteOffset":8964,
			"target":34962
		},
		{
			"buffer":0,
			"byteLength":2240,
			"byteOffset":11204,
			"target":34962
		},
		{
			"buffer":0,
			"byteLength":4480,
			"byteOffset":13444,
			"target":34962
		},
		{
			"buffer":0,
			"byteLength":1920,
			"byteOffset":17924,
			"target":34963
		}
	],
	"samplers":[
		{
			"magFilter":9729,
			"minFilter":9987
		}
	],
	"buffers":[
		{
			"byteLength":19844,
			"uri":"scene2.bin"
		}
	]
}
