{
	"asset":{
		"generator":"Khronos glTF Blender I/O v4.0.44",
		"version":"2.0"
	},
	"scene":0,
	"scenes":[
		{
			"name":"Scene",
			"nodes":[
				0
			]
		}
	],
	"nodes":[
		{
			"mesh":0,
			"name":"Plane.004",
			"scale":[
				153.1575469970703,
				153.1575469970703,
				153.1575469970703
			]
		}
	],
	"meshes":[
		{
			"name":"Plane.006",
			"primitives":[
				{
					"attributes":{
						"POSITION":0,
						"NORMAL":1,
						"TEXCOORD_0":2,
						"TANGENT":3
					},
					"indices":4
				}
			]
		}
	],
	"accessors":[
		{
			"bufferView":0,
			"componentType":5126,
			"count":1174539,
			"max":[
				0.6309019923210144,
				0.4706471860408783,
				0.2989068925380707
			],
			"min":[
				-0.6181157827377319,
				-0.3947434723377228,
				-0.24733243882656097
			],
			"type":"VEC3"
		},
		{
			"bufferView":1,
			"componentType":5126,
			"count":1174539,
			"type":"VEC3"
		},
		{
			"bufferView":2,
			"componentType":5126,
			"count":1174539,
			"type":"VEC2"
		},
		{
			"bufferView":3,
			"componentType":5126,
			"count":1174539,
			"type":"VEC4"
		},
		{
			"bufferView":4,
			"componentType":5125,
			"count":7047234,
			"type":"SCALAR"
		}
	],
	"bufferViews":[
		{
			"buffer":0,
			"byteLength":14094468,
			"byteOffset":0,
			"target":34962
		},
		{
			"buffer":0,
			"byteLength":14094468,
			"byteOffset":14094468,
			"target":34962
		},
		{
			"buffer":0,
			"byteLength":9396312,
			"byteOffset":28188936,
			"target":34962
		},
		{
			"buffer":0,
			"byteLength":18792624,
			"byteOffset":37585248,
			"target":34962
		},
		{
			"buffer":0,
			"byteLength":28188936,
			"byteOffset":56377872,
			"target":34963
		}
	],
	"buffers":[
		{
			"byteLength":84566808,
			"uri":"Dragon.bin"
		}
	]
}
