{
	"asset":{
		"generator":"Khronos glTF Blender I/O v4.0.44",
		"version":"2.0"
	},
	"scene":0,
	"scenes":[
		{
			"name":"Scene",
			"nodes":[
				0
			]
		}
	],
	"nodes":[
		{
			"mesh":0,
			"name":"Icosphere"
		}
	],
	"materials":[
		{
			"doubleSided":true,
			"name":"Material.004",
			"pbrMetallicRoughness":{
				"baseColorTexture":{
					"index":0
				},
				"metallicFactor":0,
				"roughnessFactor":0.5
			}
		}
	],
	"meshes":[
		{
			"name":"Icosphere.001",
			"primitives":[
				{
					"attributes":{
						"POSITION":0,
						"NORMAL":1,
						"TEXCOORD_0":2,
						"TANGENT":3
					},
					"indices":4,
					"material":0
				}
			]
		}
	],
	"textures":[
		{
			"sampler":0,
			"source":0
		}
	],
	"images":[
		{
			"mimeType":"image/png",
			"name":"Untitled",
			"uri":"Untitled.png"
		}
	],
	"accessors":[
		{
			"bufferView":0,
			"componentType":5126,
			"count":52116,
			"max":[
				4.406926155090332,
				4.669311046600342,
				2.524191379547119
			],
			"min":[
				-3.4124748706817627,
				-3.0652003288269043,
				-3.5295517444610596
			],
			"type":"VEC3"
		},
		{
			"bufferView":1,
			"componentType":5126,
			"count":52116,
			"type":"VEC3"
		},
		{
			"bufferView":2,
			"componentType":5126,
			"count":52116,
			"type":"VEC2"
		},
		{
			"bufferView":3,
			"componentType":5126,
			"count":52116,
			"type":"VEC4"
		},
		{
			"bufferView":4,
			"componentType":5123,
			"count":275160,
			"type":"SCALAR"
		}
	],
	"bufferViews":[
		{
			"buffer":0,
			"byteLength":625392,
			"byteOffset":0,
			"target":34962
		},
		{
			"buffer":0,
			"byteLength":625392,
			"byteOffset":625392,
			"target":34962
		},
		{
			"buffer":0,
			"byteLength":416928,
			"byteOffset":1250784,
			"target":34962
		},
		{
			"buffer":0,
			"byteLength":833856,
			"byteOffset":1667712,
			"target":34962
		},
		{
			"buffer":0,
			"byteLength":550320,
			"byteOffset":2501568,
			"target":34963
		}
	],
	"samplers":[
		{
			"magFilter":9729,
			"minFilter":9987
		}
	],
	"buffers":[
		{
			"byteLength":3051888,
			"uri":"46k.bin"
		}
	]
}
