{
	"asset":{
		"generator":"Khronos glTF Blender I/O v4.0.44",
		"version":"2.0"
	},
	"scene":0,
	"scenes":[
		{
			"name":"Scene",
			"nodes":[
				0
			]
		}
	],
	"nodes":[
		{
			"mesh":0,
			"name":"bunny",
			"rotation":[
				0.70710688829422,
				0,
				0,
				0.7071066498756409
			],
			"translation":[
				0,
				-0.029999999329447746,
				0
			]
		}
	],
	"materials":[
		{
			"doubleSided":true,
			"name":"Material.002",
			"pbrMetallicRoughness":{
				"baseColorTexture":{
					"index":0
				},
				"metallicFactor":0,
				"roughnessFactor":0
			}
		}
	],
	"meshes":[
		{
			"name":"bunny",
			"primitives":[
				{
					"attributes":{
						"POSITION":0,
						"NORMAL":1,
						"TEXCOORD_0":2,
						"TANGENT":3
					},
					"indices":4,
					"material":0
				}
			]
		}
	],
	"textures":[
		{
			"sampler":0,
			"source":0
		}
	],
	"images":[
		{
			"mimeType":"image/png",
			"name":"baseColor",
			"uri":"baseColor.png"
		}
	],
	"accessors":[
		{
			"bufferView":0,
			"componentType":5126,
			"count":208353,
			"max":[
				4.3807268142700195,
				2.5144143104553223,
				3.0259745121002197
			],
			"min":[
				-3.445223331451416,
				-3.551027536392212,
				-4.731346130371094
			],
			"type":"VEC3"
		},
		{
			"bufferView":1,
			"componentType":5126,
			"count":208353,
			"type":"VEC3"
		},
		{
			"bufferView":2,
			"componentType":5126,
			"count":208353,
			"type":"VEC2"
		},
		{
			"bufferView":3,
			"componentType":5126,
			"count":208353,
			"type":"VEC4"
		},
		{
			"bufferView":4,
			"componentType":5125,
			"count":208353,
			"type":"SCALAR"
		}
	],
	"bufferViews":[
		{
			"buffer":0,
			"byteLength":2500236,
			"byteOffset":0,
			"target":34962
		},
		{
			"buffer":0,
			"byteLength":2500236,
			"byteOffset":2500236,
			"target":34962
		},
		{
			"buffer":0,
			"byteLength":1666824,
			"byteOffset":5000472,
			"target":34962
		},
		{
			"buffer":0,
			"byteLength":3333648,
			"byteOffset":6667296,
			"target":34962
		},
		{
			"buffer":0,
			"byteLength":833412,
			"byteOffset":10000944,
			"target":34963
		}
	],
	"samplers":[
		{
			"magFilter":9729,
			"minFilter":9987
		}
	],
	"buffers":[
		{
			"byteLength":10834356,
			"uri":"scene.bin"
		}
	]
}
