{
	"asset":{
		"generator":"Khronos glTF Blender I/O v4.0.44",
		"version":"2.0"
	},
	"extensionsUsed":[
		"KHR_materials_transmission",
		"KHR_materials_ior"
	],
	"scene":0,
	"scenes":[
		{
			"name":"Scene",
			"nodes":[
				0
			]
		}
	],
	"nodes":[
		{
			"mesh":0,
			"name":"Icosphere"
		}
	],
	"materials":[
		{
			"doubleSided":true,
			"extensions":{
				"KHR_materials_transmission":{
					"transmissionFactor":1
				},
				"KHR_materials_ior":{
					"ior":1.4500000476837158
				}
			},
			"name":"Sphere",
			"pbrMetallicRoughness":{
				"baseColorFactor":[
					1,
					1,
					1,
					1
				],
				"metallicFactor":1,
				"roughnessFactor":0.05000000074505806
			}
		}
	],
	"meshes":[
		{
			"name":"Icosphere",
			"primitives":[
				{
					"attributes":{
						"POSITION":0,
						"NORMAL":1,
						"TEXCOORD_0":2,
						"TANGENT":3
					},
					"indices":4,
					"material":0
				}
			]
		}
	],
	"accessors":[
		{
			"bufferView":0,
			"componentType":5126,
			"count":205,
			"max":[
				-1,
				3,
				3
			],
			"min":[
				-3,
				1,
				1
			],
			"type":"VEC3"
		},
		{
			"bufferView":1,
			"componentType":5126,
			"count":205,
			"type":"VEC3"
		},
		{
			"bufferView":2,
			"componentType":5126,
			"count":205,
			"type":"VEC2"
		},
		{
			"bufferView":3,
			"componentType":5126,
			"count":205,
			"type":"VEC4"
		},
		{
			"bufferView":4,
			"componentType":5123,
			"count":960,
			"type":"SCALAR"
		}
	],
	"bufferViews":[
		{
			"buffer":0,
			"byteLength":2460,
			"byteOffset":0,
			"target":34962
		},
		{
			"buffer":0,
			"byteLength":2460,
			"byteOffset":2460,
			"target":34962
		},
		{
			"buffer":0,
			"byteLength":1640,
			"byteOffset":4920,
			"target":34962
		},
		{
			"buffer":0,
			"byteLength":3280,
			"byteOffset":6560,
			"target":34962
		},
		{
			"buffer":0,
			"byteLength":1920,
			"byteOffset":9840,
			"target":34963
		}
	],
	"buffers":[
		{
			"byteLength":11760,
			"uri":"sphere.bin"
		}
	]
}
