{
	"asset":{
		"generator":"Khronos glTF Blender I/O v4.0.44",
		"version":"2.0"
	},
	"extensionsUsed":[
		"KHR_materials_transmission",
		"KHR_materials_ior",
		"KHR_materials_specular"
	],
	"scene":0,
	"scenes":[
		{
			"name":"Scene",
			"nodes":[
				0,
				1,
				2
			]
		}
	],
	"nodes":[
		{
			"mesh":0,
			"name":"Plane.001",
			"scale":[
				0.2159174680709839,
				0.2159174680709839,
				0.2159174680709839
			]
		},
		{
			"mesh":1,
			"name":"Plane.002"
		},
		{
			"mesh":2,
			"name":"Plane.003"
		}
	],
	"materials":[
		{
			"doubleSided":true,
			"name":"Material.008",
			"normalTexture":{
				"index":0
			},
			"pbrMetallicRoughness":{
				"baseColorTexture":{
					"index":1
				},
				"metallicFactor":0,
				"metallicRoughnessTexture":{
					"index":2
				}
			}
		},
		{
			"doubleSided":true,
			"extensions":{
				"KHR_materials_transmission":{
					"transmissionFactor":1
				},
				"KHR_materials_ior":{
					"ior":1.4500000476837158
				}
			},
			"name":"Material.007",
			"pbrMetallicRoughness":{
				"baseColorFactor":[
					0.800000011920929,
					0.800000011920929,
					0.800000011920929,
					1
				],
				"metallicFactor":0,
				"roughnessFactor":0
			}
		},
		{
			"doubleSided":true,
			"extensions":{
				"KHR_materials_specular":{
					"specularFactor":0
				},
				"KHR_materials_ior":{
					"ior":1.4500000476837158
				}
			},
			"name":"Plate_material.001",
			"pbrMetallicRoughness":{
				"baseColorFactor":[
					0.800000011920929,
					0.800000011920929,
					0.800000011920929,
					1
				],
				"metallicFactor":0
			}
		}
	],
	"meshes":[
		{
			"name":"Plane.001",
			"primitives":[
				{
					"attributes":{
						"POSITION":0,
						"NORMAL":1,
						"TEXCOORD_0":2,
						"TANGENT":3
					},
					"indices":4,
					"material":0
				}
			]
		},
		{
			"name":"Plane.002",
			"primitives":[
				{
					"attributes":{
						"POSITION":5,
						"NORMAL":6,
						"TEXCOORD_0":7,
						"TANGENT":8
					},
					"indices":9,
					"material":1
				}
			]
		},
		{
			"name":"Plane.005",
			"primitives":[
				{
					"attributes":{
						"POSITION":10,
						"NORMAL":11,
						"TEXCOORD_0":12,
						"TANGENT":13
					},
					"indices":14,
					"material":2
				}
			]
		}
	],
	"textures":[
		{
			"sampler":0,
			"source":0
		},
		{
			"sampler":0,
			"source":1
		},
		{
			"sampler":0,
			"source":2
		}
	],
	"images":[
		{
			"mimeType":"image/png",
			"name":"fabric_0003_normal_opengl_1k",
			"uri":"fabric_0003_normal_opengl_1k.png"
		},
		{
			"mimeType":"image/jpeg",
			"name":"fabric_0003_color_1k",
			"uri":"fabric_0003_color_1k.jpg"
		},
		{
			"mimeType":"image/png",
			"name":"fabric_0003_roughness_1k",
			"uri":"fabric_0003_roughness_1k.png"
		}
	],
	"accessors":[
		{
			"bufferView":0,
			"componentType":5126,
			"count":4,
			"max":[
				60.366031646728516,
				0,
				60.366031646728516
			],
			"min":[
				-60.366031646728516,
				0,
				-60.366031646728516
			],
			"type":"VEC3"
		},
		{
			"bufferView":1,
			"componentType":5126,
			"count":4,
			"type":"VEC3"
		},
		{
			"bufferView":2,
			"componentType":5126,
			"count":4,
			"type":"VEC2"
		},
		{
			"bufferView":3,
			"componentType":5126,
			"count":4,
			"type":"VEC4"
		},
		{
			"bufferView":4,
			"componentType":5123,
			"count":6,
			"type":"SCALAR"
		},
		{
			"bufferView":5,
			"componentType":5126,
			"count":13556,
			"max":[
				1.0587389469146729,
				1.8132379055023193,
				1.131514549255371
			],
			"min":[
				-1.1725432872772217,
				0.10688091069459915,
				-1.091639518737793
			],
			"type":"VEC3"
		},
		{
			"bufferView":6,
			"componentType":5126,
			"count":13556,
			"type":"VEC3"
		},
		{
			"bufferView":7,
			"componentType":5126,
			"count":13556,
			"type":"VEC2"
		},
		{
			"bufferView":8,
			"componentType":5126,
			"count":13556,
			"type":"VEC4"
		},
		{
			"bufferView":9,
			"componentType":5123,
			"count":54588,
			"type":"SCALAR"
		},
		{
			"bufferView":10,
			"componentType":5126,
			"count":424,
			"max":[
				3.6712419986724854,
				0.4484782814979553,
				3.6712419986724854
			],
			"min":[
				-3.6712419986724854,
				-0.015356801450252533,
				-3.6712419986724854
			],
			"type":"VEC3"
		},
		{
			"bufferView":11,
			"componentType":5126,
			"count":424,
			"type":"VEC3"
		},
		{
			"bufferView":12,
			"componentType":5126,
			"count":424,
			"type":"VEC2"
		},
		{
			"bufferView":13,
			"componentType":5126,
			"count":424,
			"type":"VEC4"
		},
		{
			"bufferView":14,
			"componentType":5123,
			"count":1536,
			"type":"SCALAR"
		}
	],
	"bufferViews":[
		{
			"buffer":0,
			"byteLength":48,
			"byteOffset":0,
			"target":34962
		},
		{
			"buffer":0,
			"byteLength":48,
			"byteOffset":48,
			"target":34962
		},
		{
			"buffer":0,
			"byteLength":32,
			"byteOffset":96,
			"target":34962
		},
		{
			"buffer":0,
			"byteLength":64,
			"byteOffset":128,
			"target":34962
		},
		{
			"buffer":0,
			"byteLength":12,
			"byteOffset":192,
			"target":34963
		},
		{
			"buffer":0,
			"byteLength":162672,
			"byteOffset":204,
			"target":34962
		},
		{
			"buffer":0,
			"byteLength":162672,
			"byteOffset":162876,
			"target":34962
		},
		{
			"buffer":0,
			"byteLength":108448,
			"byteOffset":325548,
			"target":34962
		},
		{
			"buffer":0,
			"byteLength":216896,
			"byteOffset":433996,
			"target":34962
		},
		{
			"buffer":0,
			"byteLength":109176,
			"byteOffset":650892,
			"target":34963
		},
		{
			"buffer":0,
			"byteLength":5088,
			"byteOffset":760068,
			"target":34962
		},
		{
			"buffer":0,
			"byteLength":5088,
			"byteOffset":765156,
			"target":34962
		},
		{
			"buffer":0,
			"byteLength":3392,
			"byteOffset":770244,
			"target":34962
		},
		{
			"buffer":0,
			"byteLength":6784,
			"byteOffset":773636,
			"target":34962
		},
		{
			"buffer":0,
			"byteLength":3072,
			"byteOffset":780420,
			"target":34963
		}
	],
	"samplers":[
		{
			"magFilter":9729,
			"minFilter":9987
		}
	],
	"buffers":[
		{
			"byteLength":783492,
			"uri":"burger.bin"
		}
	]
}
