{
	"asset":{
		"generator":"Khronos glTF Blender I/O v4.0.44",
		"version":"2.0"
	},
	"extensionsUsed":[
		"KHR_materials_transmission",
		"KHR_materials_ior"
	],
	"scene":0,
	"scenes":[
		{
			"name":"Scene",
			"nodes":[
				0,
				1,
				2,
				3
			]
		}
	],
	"nodes":[
		{
			"mesh":0,
			"name":"Text"
		},
		{
			"mesh":1,
			"name":"Plane"
		},
		{
			"mesh":2,
			"name":"Text.002"
		},
		{
			"mesh":3,
			"name":"Text.003"
		}
	],
	"materials":[
		{
			"doubleSided":true,
			"name":"Material.001",
			"pbrMetallicRoughness":{
				"baseColorFactor":[
					0.657325267791748,
					0.8100547790527344,
					0,
					1
				],
				"metallicFactor":0.5,
				"roughnessFactor":0
			}
		},
		{
			"doubleSided":true,
			"name":"Material.004",
			"pbrMetallicRoughness":{
				"baseColorFactor":[
					0.049377504736185074,
					0.06408215314149857,
					0.08561099320650101,
					1
				],
				"metallicFactor":0,
				"roughnessFactor":0.15000000596046448
			}
		},
		{
			"doubleSided":true,
			"name":"Material.005",
			"pbrMetallicRoughness":{
				"baseColorFactor":[
					0.8004156351089478,
					0.04201766848564148,
					0.04201766848564148,
					1
				],
				"metallicFactor":0,
				"roughnessFactor":0.5
			}
		},
		{
			"doubleSided":true,
			"extensions":{
				"KHR_materials_transmission":{
					"transmissionFactor":1
				},
				"KHR_materials_ior":{
					"ior":1.4500000476837158
				}
			},
			"name":"Material.003",
			"pbrMetallicRoughness":{
				"metallicFactor":0,
				"roughnessFactor":0.5
			}
		}
	],
	"meshes":[
		{
			"name":"Text",
			"primitives":[
				{
					"attributes":{
						"POSITION":0,
						"NORMAL":1,
						"TEXCOORD_0":2,
						"TANGENT":3
					},
					"indices":4,
					"material":0
				}
			]
		},
		{
			"name":"Plane.001",
			"primitives":[
				{
					"attributes":{
						"POSITION":5,
						"NORMAL":6,
						"TEXCOORD_0":7,
						"TANGENT":8
					},
					"indices":9,
					"material":1
				}
			]
		},
		{
			"name":"Text.001",
			"primitives":[
				{
					"attributes":{
						"POSITION":10,
						"NORMAL":11,
						"TEXCOORD_0":12,
						"TANGENT":13
					},
					"indices":14,
					"material":2
				}
			]
		},
		{
			"name":"Text.002",
			"primitives":[
				{
					"attributes":{
						"POSITION":15,
						"NORMAL":16,
						"TEXCOORD_0":17,
						"TANGENT":18
					},
					"indices":19,
					"material":3
				}
			]
		}
	],
	"accessors":[
		{
			"bufferView":0,
			"componentType":5126,
			"count":21162,
			"max":[
				-0.846255898475647,
				0.32135167717933655,
				-0.0008745789527893066
			],
			"min":[
				-2.76781964302063,
				-0.48563674092292786,
				-0.9508848190307617
			],
			"type":"VEC3"
		},
		{
			"bufferView":1,
			"componentType":5126,
			"count":21162,
			"type":"VEC3"
		},
		{
			"bufferView":2,
			"componentType":5126,
			"count":21162,
			"type":"VEC2"
		},
		{
			"bufferView":3,
			"componentType":5126,
			"count":21162,
			"type":"VEC4"
		},
		{
			"bufferView":4,
			"componentType":5123,
			"count":37296,
			"type":"SCALAR"
		},
		{
			"bufferView":5,
			"componentType":5126,
			"count":4,
			"max":[
				48.82242965698242,
				-0.5577576756477356,
				48.82242965698242
			],
			"min":[
				-48.82242965698242,
				-0.5577576756477356,
				-48.82242965698242
			],
			"type":"VEC3"
		},
		{
			"bufferView":6,
			"componentType":5126,
			"count":4,
			"type":"VEC3"
		},
		{
			"bufferView":7,
			"componentType":5126,
			"count":4,
			"type":"VEC2"
		},
		{
			"bufferView":8,
			"componentType":5126,
			"count":4,
			"type":"VEC4"
		},
		{
			"bufferView":9,
			"componentType":5123,
			"count":6,
			"type":"SCALAR"
		},
		{
			"bufferView":10,
			"componentType":5126,
			"count":33597,
			"max":[
				2.9851317405700684,
				0.3446461856365204,
				-0.0008745789527893066
			],
			"min":[
				1.0092089176177979,
				-0.48563674092292786,
				-0.9508848190307617
			],
			"type":"VEC3"
		},
		{
			"bufferView":11,
			"componentType":5126,
			"count":33597,
			"type":"VEC3"
		},
		{
			"bufferView":12,
			"componentType":5126,
			"count":33597,
			"type":"VEC2"
		},
		{
			"bufferView":13,
			"componentType":5126,
			"count":33597,
			"type":"VEC4"
		},
		{
			"bufferView":14,
			"componentType":5123,
			"count":59628,
			"type":"SCALAR"
		},
		{
			"bufferView":15,
			"componentType":5126,
			"count":21522,
			"max":[
				1.0957810878753662,
				0.32135167717933655,
				-0.0008745789527893066
			],
			"min":[
				-0.5229370594024658,
				-0.3001125752925873,
				-0.9508848190307617
			],
			"type":"VEC3"
		},
		{
			"bufferView":16,
			"componentType":5126,
			"count":21522,
			"type":"VEC3"
		},
		{
			"bufferView":17,
			"componentType":5126,
			"count":21522,
			"type":"VEC2"
		},
		{
			"bufferView":18,
			"componentType":5126,
			"count":21522,
			"type":"VEC4"
		},
		{
			"bufferView":19,
			"componentType":5123,
			"count":37236,
			"type":"SCALAR"
		}
	],
	"bufferViews":[
		{
			"buffer":0,
			"byteLength":253944,
			"byteOffset":0,
			"target":34962
		},
		{
			"buffer":0,
			"byteLength":253944,
			"byteOffset":253944,
			"target":34962
		},
		{
			"buffer":0,
			"byteLength":169296,
			"byteOffset":507888,
			"target":34962
		},
		{
			"buffer":0,
			"byteLength":338592,
			"byteOffset":677184,
			"target":34962
		},
		{
			"buffer":0,
			"byteLength":74592,
			"byteOffset":1015776,
			"target":34963
		},
		{
			"buffer":0,
			"byteLength":48,
			"byteOffset":1090368,
			"target":34962
		},
		{
			"buffer":0,
			"byteLength":48,
			"byteOffset":1090416,
			"target":34962
		},
		{
			"buffer":0,
			"byteLength":32,
			"byteOffset":1090464,
			"target":34962
		},
		{
			"buffer":0,
			"byteLength":64,
			"byteOffset":1090496,
			"target":34962
		},
		{
			"buffer":0,
			"byteLength":12,
			"byteOffset":1090560,
			"target":34963
		},
		{
			"buffer":0,
			"byteLength":403164,
			"byteOffset":1090572,
			"target":34962
		},
		{
			"buffer":0,
			"byteLength":403164,
			"byteOffset":1493736,
			"target":34962
		},
		{
			"buffer":0,
			"byteLength":268776,
			"byteOffset":1896900,
			"target":34962
		},
		{
			"buffer":0,
			"byteLength":537552,
			"byteOffset":2165676,
			"target":34962
		},
		{
			"buffer":0,
			"byteLength":119256,
			"byteOffset":2703228,
			"target":34963
		},
		{
			"buffer":0,
			"byteLength":258264,
			"byteOffset":2822484,
			"target":34962
		},
		{
			"buffer":0,
			"byteLength":258264,
			"byteOffset":3080748,
			"target":34962
		},
		{
			"buffer":0,
			"byteLength":172176,
			"byteOffset":3339012,
			"target":34962
		},
		{
			"buffer":0,
			"byteLength":344352,
			"byteOffset":3511188,
			"target":34962
		},
		{
			"buffer":0,
			"byteLength":74472,
			"byteOffset":3855540,
			"target":34963
		}
	],
	"buffers":[
		{
			"byteLength":3930012,
			"uri":"RayTracing.bin"
		}
	]
}
