{
	"asset":{
		"generator":"Khronos glTF Blender I/O v4.0.44",
		"version":"2.0"
	},
	"scene":0,
	"scenes":[
		{
			"name":"Scene",
			"nodes":[
				0,
				1,
				2,
				3,
				4,
				5,
				6,
				7,
				8,
				9,
				10,
				11,
				12,
				13,
				14,
				15
			]
		}
	],
	"nodes":[
		{
			"mesh":0,
			"name":"Plane"
		},
		{
			"mesh":1,
			"name":"Icosphere"
		},
		{
			"mesh":2,
			"name":"Icosphere.001"
		},
		{
			"mesh":3,
			"name":"Icosphere.002"
		},
		{
			"mesh":4,
			"name":"Icosphere.003"
		},
		{
			"mesh":5,
			"name":"Icosphere.004"
		},
		{
			"mesh":6,
			"name":"Icosphere.005"
		},
		{
			"mesh":7,
			"name":"Icosphere.006"
		},
		{
			"mesh":8,
			"name":"Icosphere.007"
		},
		{
			"mesh":9,
			"name":"Icosphere.008"
		},
		{
			"mesh":10,
			"name":"Icosphere.009"
		},
		{
			"mesh":11,
			"name":"Icosphere.010"
		},
		{
			"mesh":12,
			"name":"Icosphere.011"
		},
		{
			"mesh":13,
			"name":"Icosphere.012"
		},
		{
			"mesh":14,
			"name":"Icosphere.013"
		},
		{
			"mesh":15,
			"name":"Icosphere.014"
		}
	],
	"materials":[
		{
			"doubleSided":true,
			"name":"Material.005",
			"pbrMetallicRoughness":{
				"baseColorFactor":[
					0.7706496715545654,
					0.20245057344436646,
					0.8007017374038696,
					1
				],
				"metallicFactor":0,
				"roughnessFactor":0.10000000149011612
			}
		},
		{
			"doubleSided":true,
			"name":"Material.001",
			"pbrMetallicRoughness":{
				"baseColorFactor":[
					0.8032890558242798,
					0.12404224276542664,
					0.41947200894355774,
					1
				],
				"roughnessFactor":0
			}
		},
		{
			"doubleSided":true,
			"name":"Material.002",
			"pbrMetallicRoughness":{
				"baseColorFactor":[
					0.009061084128916264,
					0.5845515131950378,
					0.8015395402908325,
					1
				],
				"roughnessFactor":0
			}
		},
		{
			"doubleSided":true,
			"name":"Material.003",
			"pbrMetallicRoughness":{
				"baseColorFactor":[
					0.8008598685264587,
					0.6649271845817566,
					0.04276927188038826,
					1
				],
				"roughnessFactor":0
			}
		},
		{
			"doubleSided":true,
			"name":"Material.004",
			"pbrMetallicRoughness":{
				"baseColorFactor":[
					0.15796813368797302,
					0.8005601167678833,
					0.05473984032869339,
					1
				],
				"roughnessFactor":0
			}
		}
	],
	"meshes":[
		{
			"name":"Plane",
			"primitives":[
				{
					"attributes":{
						"POSITION":0,
						"NORMAL":1,
						"TEXCOORD_0":2,
						"TANGENT":3
					},
					"indices":4,
					"material":0
				}
			]
		},
		{
			"name":"Icosphere",
			"primitives":[
				{
					"attributes":{
						"POSITION":5,
						"NORMAL":6,
						"TEXCOORD_0":7,
						"TANGENT":8
					},
					"indices":9,
					"material":1
				}
			]
		},
		{
			"name":"Icosphere.001",
			"primitives":[
				{
					"attributes":{
						"POSITION":10,
						"NORMAL":11,
						"TEXCOORD_0":12,
						"TANGENT":13
					},
					"indices":9,
					"material":2
				}
			]
		},
		{
			"name":"Icosphere.002",
			"primitives":[
				{
					"attributes":{
						"POSITION":14,
						"NORMAL":15,
						"TEXCOORD_0":16,
						"TANGENT":17
					},
					"indices":9,
					"material":3
				}
			]
		},
		{
			"name":"Icosphere.003",
			"primitives":[
				{
					"attributes":{
						"POSITION":18,
						"NORMAL":19,
						"TEXCOORD_0":20,
						"TANGENT":21
					},
					"indices":9,
					"material":2
				}
			]
		},
		{
			"name":"Icosphere.004",
			"primitives":[
				{
					"attributes":{
						"POSITION":22,
						"NORMAL":23,
						"TEXCOORD_0":24,
						"TANGENT":25
					},
					"indices":9,
					"material":1
				}
			]
		},
		{
			"name":"Icosphere.005",
			"primitives":[
				{
					"attributes":{
						"POSITION":26,
						"NORMAL":27,
						"TEXCOORD_0":28,
						"TANGENT":29
					},
					"indices":9,
					"material":4
				}
			]
		},
		{
			"name":"Icosphere.006",
			"primitives":[
				{
					"attributes":{
						"POSITION":30,
						"NORMAL":31,
						"TEXCOORD_0":32,
						"TANGENT":33
					},
					"indices":9,
					"material":2
				}
			]
		},
		{
			"name":"Icosphere.007",
			"primitives":[
				{
					"attributes":{
						"POSITION":34,
						"NORMAL":35,
						"TEXCOORD_0":36,
						"TANGENT":37
					},
					"indices":9,
					"material":3
				}
			]
		},
		{
			"name":"Icosphere.008",
			"primitives":[
				{
					"attributes":{
						"POSITION":38,
						"NORMAL":39,
						"TEXCOORD_0":40,
						"TANGENT":41
					},
					"indices":9,
					"material":1
				}
			]
		},
		{
			"name":"Icosphere.009",
			"primitives":[
				{
					"attributes":{
						"POSITION":42,
						"NORMAL":43,
						"TEXCOORD_0":44,
						"TANGENT":45
					},
					"indices":9,
					"material":3
				}
			]
		},
		{
			"name":"Icosphere.010",
			"primitives":[
				{
					"attributes":{
						"POSITION":46,
						"NORMAL":47,
						"TEXCOORD_0":48,
						"TANGENT":49
					},
					"indices":9,
					"material":4
				}
			]
		},
		{
			"name":"Icosphere.011",
			"primitives":[
				{
					"attributes":{
						"POSITION":50,
						"NORMAL":51,
						"TEXCOORD_0":52,
						"TANGENT":53
					},
					"indices":9,
					"material":2
				}
			]
		},
		{
			"name":"Icosphere.012",
			"primitives":[
				{
					"attributes":{
						"POSITION":54,
						"NORMAL":55,
						"TEXCOORD_0":56,
						"TANGENT":57
					},
					"indices":9,
					"material":2
				}
			]
		},
		{
			"name":"Icosphere.013",
			"primitives":[
				{
					"attributes":{
						"POSITION":58,
						"NORMAL":59,
						"TEXCOORD_0":60,
						"TANGENT":61
					},
					"indices":9,
					"material":2
				}
			]
		},
		{
			"name":"Icosphere.014",
			"primitives":[
				{
					"attributes":{
						"POSITION":62,
						"NORMAL":63,
						"TEXCOORD_0":64,
						"TANGENT":65
					},
					"indices":9,
					"material":1
				}
			]
		}
	],
	"accessors":[
		{
			"bufferView":0,
			"componentType":5126,
			"count":4,
			"max":[
				70.20626831054688,
				0,
				70.2062759399414
			],
			"min":[
				-70.20626831054688,
				0,
				-70.20626831054688
			],
			"type":"VEC3"
		},
		{
			"bufferView":1,
			"componentType":5126,
			"count":4,
			"type":"VEC3"
		},
		{
			"bufferView":2,
			"componentType":5126,
			"count":4,
			"type":"VEC2"
		},
		{
			"bufferView":3,
			"componentType":5126,
			"count":4,
			"type":"VEC4"
		},
		{
			"bufferView":4,
			"componentType":5123,
			"count":6,
			"type":"SCALAR"
		},
		{
			"bufferView":5,
			"componentType":5126,
			"count":205,
			"max":[
				1,
				2,
				0.9999999403953552
			],
			"min":[
				-0.9999999403953552,
				0,
				-0.9999999403953552
			],
			"type":"VEC3"
		},
		{
			"bufferView":6,
			"componentType":5126,
			"count":205,
			"type":"VEC3"
		},
		{
			"bufferView":7,
			"componentType":5126,
			"count":205,
			"type":"VEC2"
		},
		{
			"bufferView":8,
			"componentType":5126,
			"count":205,
			"type":"VEC4"
		},
		{
			"bufferView":9,
			"componentType":5123,
			"count":960,
			"type":"SCALAR"
		},
		{
			"bufferView":10,
			"componentType":5126,
			"count":205,
			"max":[
				2.6959762573242188,
				1.0909453630447388,
				1.7928752899169922
			],
			"min":[
				1.60503089427948,
				0,
				0.7019299864768982
			],
			"type":"VEC3"
		},
		{
			"bufferView":11,
			"componentType":5126,
			"count":205,
			"type":"VEC3"
		},
		{
			"bufferView":12,
			"componentType":5126,
			"count":205,
			"type":"VEC2"
		},
		{
			"bufferView":13,
			"componentType":5126,
			"count":205,
			"type":"VEC4"
		},
		{
			"bufferView":14,
			"componentType":5126,
			"count":205,
			"max":[
				-5.048535346984863,
				1.090945839881897,
				1.394608497619629
			],
			"min":[
				-6.1394805908203125,
				4.76837158203125e-07,
				0.3036632537841797
			],
			"type":"VEC3"
		},
		{
			"bufferView":15,
			"componentType":5126,
			"count":205,
			"type":"VEC3"
		},
		{
			"bufferView":16,
			"componentType":5126,
			"count":205,
			"type":"VEC2"
		},
		{
			"bufferView":17,
			"componentType":5126,
			"count":205,
			"type":"VEC4"
		},
		{
			"bufferView":18,
			"componentType":5126,
			"count":205,
			"max":[
				-2.0265674591064453,
				1.469125509262085,
				-0.10658849775791168
			],
			"min":[
				-3.495692729949951,
				0,
				-1.5757137537002563
			],
			"type":"VEC3"
		},
		{
			"bufferView":19,
			"componentType":5126,
			"count":205,
			"type":"VEC3"
		},
		{
			"bufferView":20,
			"componentType":5126,
			"count":205,
			"type":"VEC2"
		},
		{
			"bufferView":21,
			"componentType":5126,
			"count":205,
			"type":"VEC4"
		},
		{
			"bufferView":22,
			"componentType":5126,
			"count":205,
			"max":[
				5.162170886993408,
				1.4691252708435059,
				-2.6733813285827637
			],
			"min":[
				3.6930456161499023,
				-2.384185791015625e-07,
				-4.1425065994262695
			],
			"type":"VEC3"
		},
		{
			"bufferView":23,
			"componentType":5126,
			"count":205,
			"type":"VEC3"
		},
		{
			"bufferView":24,
			"componentType":5126,
			"count":205,
			"type":"VEC2"
		},
		{
			"bufferView":25,
			"componentType":5126,
			"count":205,
			"type":"VEC4"
		},
		{
			"bufferView":26,
			"componentType":5126,
			"count":205,
			"max":[
				-3.849228858947754,
				1.999999761581421,
				-2.171546459197998
			],
			"min":[
				-5.849228858947754,
				-2.384185791015625e-07,
				-4.171546459197998
			],
			"type":"VEC3"
		},
		{
			"bufferView":27,
			"componentType":5126,
			"count":205,
			"type":"VEC3"
		},
		{
			"bufferView":28,
			"componentType":5126,
			"count":205,
			"type":"VEC2"
		},
		{
			"bufferView":29,
			"componentType":5126,
			"count":205,
			"type":"VEC4"
		},
		{
			"bufferView":30,
			"componentType":5126,
			"count":205,
			"max":[
				2.991201400756836,
				1.999999761581421,
				-5.796221733093262
			],
			"min":[
				0.9912014007568359,
				-2.384185791015625e-07,
				-7.796221733093262
			],
			"type":"VEC3"
		},
		{
			"bufferView":31,
			"componentType":5126,
			"count":205,
			"type":"VEC3"
		},
		{
			"bufferView":32,
			"componentType":5126,
			"count":205,
			"type":"VEC2"
		},
		{
			"bufferView":33,
			"componentType":5126,
			"count":205,
			"type":"VEC4"
		},
		{
			"bufferView":34,
			"componentType":5126,
			"count":205,
			"max":[
				-0.792510986328125,
				1.469125509262085,
				-4.53808069229126
			],
			"min":[
				-2.261636257171631,
				0,
				-6.007205963134766
			],
			"type":"VEC3"
		},
		{
			"bufferView":35,
			"componentType":5126,
			"count":205,
			"type":"VEC3"
		},
		{
			"bufferView":36,
			"componentType":5126,
			"count":205,
			"type":"VEC2"
		},
		{
			"bufferView":37,
			"componentType":5126,
			"count":205,
			"type":"VEC4"
		},
		{
			"bufferView":38,
			"componentType":5126,
			"count":205,
			"max":[
				-3.1833465099334717,
				1.090945839881897,
				-9.27281379699707
			],
			"min":[
				-4.2742919921875,
				4.76837158203125e-07,
				-10.36375904083252
			],
			"type":"VEC3"
		},
		{
			"bufferView":39,
			"componentType":5126,
			"count":205,
			"type":"VEC3"
		},
		{
			"bufferView":40,
			"componentType":5126,
			"count":205,
			"type":"VEC2"
		},
		{
			"bufferView":41,
			"componentType":5126,
			"count":205,
			"type":"VEC4"
		},
		{
			"bufferView":42,
			"componentType":5126,
			"count":205,
			"max":[
				5.801766872406006,
				1.4691252708435059,
				-8.470380783081055
			],
			"min":[
				4.3326416015625,
				-2.384185791015625e-07,
				-9.939505577087402
			],
			"type":"VEC3"
		},
		{
			"bufferView":43,
			"componentType":5126,
			"count":205,
			"type":"VEC3"
		},
		{
			"bufferView":44,
			"componentType":5126,
			"count":205,
			"type":"VEC2"
		},
		{
			"bufferView":45,
			"componentType":5126,
			"count":205,
			"type":"VEC4"
		},
		{
			"bufferView":46,
			"componentType":5126,
			"count":205,
			"max":[
				0.4358205795288086,
				1.090945839881897,
				-10.840405464172363
			],
			"min":[
				-0.6551249027252197,
				4.76837158203125e-07,
				-11.931350708007812
			],
			"type":"VEC3"
		},
		{
			"bufferView":47,
			"componentType":5126,
			"count":205,
			"type":"VEC3"
		},
		{
			"bufferView":48,
			"componentType":5126,
			"count":205,
			"type":"VEC2"
		},
		{
			"bufferView":49,
			"componentType":5126,
			"count":205,
			"type":"VEC4"
		},
		{
			"bufferView":50,
			"componentType":5126,
			"count":205,
			"max":[
				-1.8371880054473877,
				1.469125509262085,
				4.435662269592285
			],
			"min":[
				-3.3063132762908936,
				0,
				2.9665369987487793
			],
			"type":"VEC3"
		},
		{
			"bufferView":51,
			"componentType":5126,
			"count":205,
			"type":"VEC3"
		},
		{
			"bufferView":52,
			"componentType":5126,
			"count":205,
			"type":"VEC2"
		},
		{
			"bufferView":53,
			"componentType":5126,
			"count":205,
			"type":"VEC4"
		},
		{
			"bufferView":54,
			"componentType":5126,
			"count":205,
			"max":[
				1.1023800373077393,
				1.0909453630447388,
				4.388652801513672
			],
			"min":[
				0.011434674263000488,
				0,
				3.2977077960968018
			],
			"type":"VEC3"
		},
		{
			"bufferView":55,
			"componentType":5126,
			"count":205,
			"type":"VEC3"
		},
		{
			"bufferView":56,
			"componentType":5126,
			"count":205,
			"type":"VEC2"
		},
		{
			"bufferView":57,
			"componentType":5126,
			"count":205,
			"type":"VEC4"
		},
		{
			"bufferView":58,
			"componentType":5126,
			"count":205,
			"max":[
				3.7124202251434326,
				1.469125509262085,
				6.152942180633545
			],
			"min":[
				2.2432949542999268,
				0,
				4.683816909790039
			],
			"type":"VEC3"
		},
		{
			"bufferView":59,
			"componentType":5126,
			"count":205,
			"type":"VEC3"
		},
		{
			"bufferView":60,
			"componentType":5126,
			"count":205,
			"type":"VEC2"
		},
		{
			"bufferView":61,
			"componentType":5126,
			"count":205,
			"type":"VEC4"
		},
		{
			"bufferView":62,
			"componentType":5126,
			"count":205,
			"max":[
				-4.7878522872924805,
				2,
				5.3969244956970215
			],
			"min":[
				-6.7878522872924805,
				0,
				3.3969244956970215
			],
			"type":"VEC3"
		},
		{
			"bufferView":63,
			"componentType":5126,
			"count":205,
			"type":"VEC3"
		},
		{
			"bufferView":64,
			"componentType":5126,
			"count":205,
			"type":"VEC2"
		},
		{
			"bufferView":65,
			"componentType":5126,
			"count":205,
			"type":"VEC4"
		}
	],
	"bufferViews":[
		{
			"buffer":0,
			"byteLength":48,
			"byteOffset":0,
			"target":34962
		},
		{
			"buffer":0,
			"byteLength":48,
			"byteOffset":48,
			"target":34962
		},
		{
			"buffer":0,
			"byteLength":32,
			"byteOffset":96,
			"target":34962
		},
		{
			"buffer":0,
			"byteLength":64,
			"byteOffset":128,
			"target":34962
		},
		{
			"buffer":0,
			"byteLength":12,
			"byteOffset":192,
			"target":34963
		},
		{
			"buffer":0,
			"byteLength":2460,
			"byteOffset":204,
			"target":34962
		},
		{
			"buffer":0,
			"byteLength":2460,
			"byteOffset":2664,
			"target":34962
		},
		{
			"buffer":0,
			"byteLength":1640,
			"byteOffset":5124,
			"target":34962
		},
		{
			"buffer":0,
			"byteLength":3280,
			"byteOffset":6764,
			"target":34962
		},
		{
			"buffer":0,
			"byteLength":1920,
			"byteOffset":10044,
			"target":34963
		},
		{
			"buffer":0,
			"byteLength":2460,
			"byteOffset":11964,
			"target":34962
		},
		{
			"buffer":0,
			"byteLength":2460,
			"byteOffset":14424,
			"target":34962
		},
		{
			"buffer":0,
			"byteLength":1640,
			"byteOffset":16884,
			"target":34962
		},
		{
			"buffer":0,
			"byteLength":3280,
			"byteOffset":18524,
			"target":34962
		},
		{
			"buffer":0,
			"byteLength":2460,
			"byteOffset":21804,
			"target":34962
		},
		{
			"buffer":0,
			"byteLength":2460,
			"byteOffset":24264,
			"target":34962
		},
		{
			"buffer":0,
			"byteLength":1640,
			"byteOffset":26724,
			"target":34962
		},
		{
			"buffer":0,
			"byteLength":3280,
			"byteOffset":28364,
			"target":34962
		},
		{
			"buffer":0,
			"byteLength":2460,
			"byteOffset":31644,
			"target":34962
		},
		{
			"buffer":0,
			"byteLength":2460,
			"byteOffset":34104,
			"target":34962
		},
		{
			"buffer":0,
			"byteLength":1640,
			"byteOffset":36564,
			"target":34962
		},
		{
			"buffer":0,
			"byteLength":3280,
			"byteOffset":38204,
			"target":34962
		},
		{
			"buffer":0,
			"byteLength":2460,
			"byteOffset":41484,
			"target":34962
		},
		{
			"buffer":0,
			"byteLength":2460,
			"byteOffset":43944,
			"target":34962
		},
		{
			"buffer":0,
			"byteLength":1640,
			"byteOffset":46404,
			"target":34962
		},
		{
			"buffer":0,
			"byteLength":3280,
			"byteOffset":48044,
			"target":34962
		},
		{
			"buffer":0,
			"byteLength":2460,
			"byteOffset":51324,
			"target":34962
		},
		{
			"buffer":0,
			"byteLength":2460,
			"byteOffset":53784,
			"target":34962
		},
		{
			"buffer":0,
			"byteLength":1640,
			"byteOffset":56244,
			"target":34962
		},
		{
			"buffer":0,
			"byteLength":3280,
			"byteOffset":57884,
			"target":34962
		},
		{
			"buffer":0,
			"byteLength":2460,
			"byteOffset":61164,
			"target":34962
		},
		{
			"buffer":0,
			"byteLength":2460,
			"byteOffset":63624,
			"target":34962
		},
		{
			"buffer":0,
			"byteLength":1640,
			"byteOffset":66084,
			"target":34962
		},
		{
			"buffer":0,
			"byteLength":3280,
			"byteOffset":67724,
			"target":34962
		},
		{
			"buffer":0,
			"byteLength":2460,
			"byteOffset":71004,
			"target":34962
		},
		{
			"buffer":0,
			"byteLength":2460,
			"byteOffset":73464,
			"target":34962
		},
		{
			"buffer":0,
			"byteLength":1640,
			"byteOffset":75924,
			"target":34962
		},
		{
			"buffer":0,
			"byteLength":3280,
			"byteOffset":77564,
			"target":34962
		},
		{
			"buffer":0,
			"byteLength":2460,
			"byteOffset":80844,
			"target":34962
		},
		{
			"buffer":0,
			"byteLength":2460,
			"byteOffset":83304,
			"target":34962
		},
		{
			"buffer":0,
			"byteLength":1640,
			"byteOffset":85764,
			"target":34962
		},
		{
			"buffer":0,
			"byteLength":3280,
			"byteOffset":87404,
			"target":34962
		},
		{
			"buffer":0,
			"byteLength":2460,
			"byteOffset":90684,
			"target":34962
		},
		{
			"buffer":0,
			"byteLength":2460,
			"byteOffset":93144,
			"target":34962
		},
		{
			"buffer":0,
			"byteLength":1640,
			"byteOffset":95604,
			"target":34962
		},
		{
			"buffer":0,
			"byteLength":3280,
			"byteOffset":97244,
			"target":34962
		},
		{
			"buffer":0,
			"byteLength":2460,
			"byteOffset":100524,
			"target":34962
		},
		{
			"buffer":0,
			"byteLength":2460,
			"byteOffset":102984,
			"target":34962
		},
		{
			"buffer":0,
			"byteLength":1640,
			"byteOffset":105444,
			"target":34962
		},
		{
			"buffer":0,
			"byteLength":3280,
			"byteOffset":107084,
			"target":34962
		},
		{
			"buffer":0,
			"byteLength":2460,
			"byteOffset":110364,
			"target":34962
		},
		{
			"buffer":0,
			"byteLength":2460,
			"byteOffset":112824,
			"target":34962
		},
		{
			"buffer":0,
			"byteLength":1640,
			"byteOffset":115284,
			"target":34962
		},
		{
			"buffer":0,
			"byteLength":3280,
			"byteOffset":116924,
			"target":34962
		},
		{
			"buffer":0,
			"byteLength":2460,
			"byteOffset":120204,
			"target":34962
		},
		{
			"buffer":0,
			"byteLength":2460,
			"byteOffset":122664,
			"target":34962
		},
		{
			"buffer":0,
			"byteLength":1640,
			"byteOffset":125124,
			"target":34962
		},
		{
			"buffer":0,
			"byteLength":3280,
			"byteOffset":126764,
			"target":34962
		},
		{
			"buffer":0,
			"byteLength":2460,
			"byteOffset":130044,
			"target":34962
		},
		{
			"buffer":0,
			"byteLength":2460,
			"byteOffset":132504,
			"target":34962
		},
		{
			"buffer":0,
			"byteLength":1640,
			"byteOffset":134964,
			"target":34962
		},
		{
			"buffer":0,
			"byteLength":3280,
			"byteOffset":136604,
			"target":34962
		},
		{
			"buffer":0,
			"byteLength":2460,
			"byteOffset":139884,
			"target":34962
		},
		{
			"buffer":0,
			"byteLength":2460,
			"byteOffset":142344,
			"target":34962
		},
		{
			"buffer":0,
			"byteLength":1640,
			"byteOffset":144804,
			"target":34962
		},
		{
			"buffer":0,
			"byteLength":3280,
			"byteOffset":146444,
			"target":34962
		}
	],
	"buffers":[
		{
			"byteLength":149724,
			"uri":"scene4.bin"
		}
	]
}
